<?xml version="1.0" encoding="UTF-8" standalone="no"?>
<svg
   xmlns:dc="http://purl.org/dc/elements/1.1/"
   xmlns:cc="http://creativecommons.org/ns#"
   xmlns:rdf="http://www.w3.org/1999/02/22-rdf-syntax-ns#"
   xmlns:svg="http://www.w3.org/2000/svg"
   xmlns="http://www.w3.org/2000/svg"
   xmlns:sodipodi="http://sodipodi.sourceforge.net/DTD/sodipodi-0.dtd"
   xmlns:inkscape="http://www.inkscape.org/namespaces/inkscape"
   id="svg2"
   xml:space="preserve"
   viewBox="0 0 577.51 575.94"
   version="1.0"
   inkscape:version="0.91 r13725"
   sodipodi:docname="house-modified.svg"><defs
     id="defs74" /><sodipodi:namedview
     pagecolor="#ffffff"
     bordercolor="#666666"
     borderopacity="1"
     objecttolerance="10"
     gridtolerance="10"
     guidetolerance="10"
     inkscape:pageopacity="0"
     inkscape:pageshadow="2"
     inkscape:window-width="1280"
     inkscape:window-height="657"
     id="namedview72"
     showgrid="false"
     inkscape:zoom="0.35355339"
     inkscape:cx="-121.45893"
     inkscape:cy="122.67737"
     inkscape:window-x="-8"
     inkscape:window-y="-8"
     inkscape:window-maximized="1"
     inkscape:current-layer="g11" /><g
     id="g11"
     transform="matrix(2.5599607,0,0,-2.0709556,-604.99001,401.31308)"><g
       id="g4198"
       transform="matrix(1.2963342,0,0,1.0526671,-148.07425,-6.1138016)"
       inkscape:export-xdpi="90"
       inkscape:export-ydpi="90"><path
         id="path2448"
         d="m 424.2213,225.47292 17.82609,4.17554 c -0.009,0.0568 -0.69076,13.75093 -0.7311,13.76766 l -17.72017,-1.41643 0.62445,-16.52661 z"
         inkscape:connector-curvature="0"
         style="fill:#858585;fill-rule:evenodd" /><path
         id="path2410"
         d="m 243.12696,243.99546 0.57025,-15.39531 92.70079,-126.3891 16.57364,-0.43805 -97.3833,130.37779 -0.0228,0 0.13697,11.36966 z"
         inkscape:connector-curvature="0"
         style="fill:#858585;fill-rule:evenodd" /><path
         id="path2412"
         d="m 441.59813,230.94462 10.51194,-0.55989 111.52036,-127.4261 -14.30507,0 z"
         inkscape:connector-curvature="0"
         style="fill:#6e6e6e;fill-rule:evenodd" /><path
         id="path2414"
         d="M 549.31988,103.45879 442.09122,230.38312 c -1.24898,3.26183 -8.03991,-1.78121 -12.8395,-1.81586 L 549.36462,89.926966 Z"
         inkscape:connector-curvature="0"
         style="fill:#858585;fill-rule:evenodd" /><path
         id="path2420"
         d="m 141.75419,114.01591 86.21301,111.19418 0.57112,18.36803 14.58449,0.41748 0.57026,-15.39563 92.69165,-126.2314 -0.003,-219.67244 c 0,0 -195.62861,8.42021 -193.37318,9.17207 z"
         inkscape:connector-curvature="0"
         style="fill:#7e6339;fill-rule:evenodd" /><path
         id="path2422"
         d="m 336.38749,102.59463 13.9389,-0.2762 2.45732,-24.45141 196.30433,-0.497359 0.24256,25.594339 14.30507,0 0,-206.92107 -227.24111,-13.34314 z"
         inkscape:connector-curvature="0"
         style="fill:#be9f70;fill-rule:evenodd" /><path
         id="path2426"
         d="M 257.46581,229.64639 429.59963,228.53325 549.37467,89.924816 350.69621,92.169885 350.33051,102.3224 Z"
         inkscape:connector-curvature="0"
         style="fill:#463f44;fill-rule:evenodd" /><path
         id="path2428"
         d="m 359.47137,175.74178 19.64596,17.86785 60.34134,8.56277 -29.51778,-17.81608 -50.46952,-8.61454 z"
         inkscape:connector-curvature="0"
         style="fill:#302a29;fill-rule:evenodd" /><path
         id="path2430"
         d="m 360.12882,175.64621 0.29214,-5.33734 52.29212,9.08286 26.58482,15.51908 25.41601,-18.68104 4.20003,-0.30556 1.91884,1.31409 -31.82708,24.79309 -28.33711,-16.87546 -50.53983,-9.50976 z"
         inkscape:connector-curvature="0"
         style="fill:#ebe3d9;fill-rule:evenodd" /><path
         id="path2409"
         d="m 405.56609,118.08583 4.05082,0.40459 -0.18252,60.52959 -44.26663,-7.88395 40.39862,-53.0508 z"
         inkscape:connector-curvature="0"
         style="fill:#d2b996;fill-rule:evenodd" /><path
         id="path2411"
         d="m 409.29165,178.87984 3.09606,0.4027 26.39032,16.02881 25.06354,-18.49705 -1.47433,-60.50968 -52.63363,2.15603 -0.4423,60.41967 z"
         inkscape:connector-curvature="0"
         style="fill:#ebe3d9;fill-rule:evenodd" /><path
         id="path2413"
         d="m 418.09421,168.61344 -0.97924,-46.12715 38.15415,-1.05117 0,45.90892 -37.17436,1.2694 z"
         inkscape:connector-curvature="0"
         style="fill:#52402b;fill-rule:evenodd" /><path
         id="path2415"
         d="m 417.01672,152.08683 0.17934,-1.87853 38.0674,-1.68412 0.18571,2.21416 z"
         inkscape:connector-curvature="0"
         style="fill:#ebe3d9;fill-rule:evenodd" /><path
         id="path2417"
         d="m 437.18772,168.27892 -0.30951,-17.71652 1.98094,0.0931 0.30951,17.23865 -1.98094,0.38452 z"
         inkscape:connector-curvature="0"
         style="fill:#ebe3d9;fill-rule:evenodd" /><path
         id="path3220"
         d="m 441.2968,244.11812 10.67447,-1.91733 0.19818,-11.88004 -10.33844,0.3586 -0.53394,13.43872 z"
         inkscape:connector-curvature="0"
         style="fill:#6e6e6e;fill-rule:evenodd" /><path
         id="path3222"
         d="m 423.58211,247.01724 16.9778,2.10283 11.78483,-1.41436 -0.17986,-5.52347 -11.06072,1.2373 -17.50102,-1.41563 -0.0215,5.01341 z"
         inkscape:connector-curvature="0"
         style="fill:#252525;fill-rule:evenodd" /><path
         id="path3224"
         d="m 228.36441,248.64999 15.14697,1.02648 12.37563,-0.69164 -0.18003,-5.45927 -11.92181,0.21218 -15.24193,-0.1535 c -0.17984,5.06583 -0.0661,3.48325 -0.17984,5.06583 z"
         inkscape:connector-curvature="0"
         style="fill:#252525;fill-rule:evenodd" /><path
         id="path3235"
         d="m 395.8504,-39.780287 1.60464,-74.079813 38.46371,2.50456 -0.31229,73.190163 -39.75578,-1.61523 z"
         inkscape:connector-curvature="0"
         style="fill-rule:evenodd" /><path
         id="path3226"
         d="m 401.95923,-43.968087 1.22195,-69.658653 29.2895,2.0317 -0.2378,68.811213 -30.27386,-1.18482 z"
         inkscape:connector-curvature="0"
         style="fill:#761111;fill-rule:evenodd" /><path
         id="path3237"
         d="m 407.1458,-48.006947 0.27273,-30.19869 18.27352,0.38297 -0.27272,30.19869 -18.27352,-0.38295 z"
         inkscape:connector-curvature="0"
         style="fill-rule:evenodd" /><path
         id="path3239"
         d="m 350.68708,92.16654 0,-7.136626 201.56394,-0.04853 0,7.136626 z"
         inkscape:connector-curvature="0"
         style="fill:#dfceb0;fill-rule:evenodd" /><path
         id="path3241"
         d="m 350.68708,85.029436 0.79425,-3.195648 194.66069,0.0133 -0.22694,3.309781 z"
         inkscape:connector-curvature="0"
         style="fill:#90816a;fill-rule:evenodd" /><path
         id="path3243"
         d="m 351.4815,81.834027 -0.79425,-4.912504 194.40502,0.567321 1.05612,4.358484 z"
         inkscape:connector-curvature="0"
         style="fill:#dfceb0;fill-rule:evenodd" /><path
         id="path3245"
         d="m 552.25102,84.981648 c -1.35371,0.03764 -6.32953,0.175971 -6.32953,0.175971 l 0.22697,-3.309782 -1.00901,-4.359678 3.94197,-0.117797 3.16966,7.611238 z"
         inkscape:connector-curvature="0"
         style="fill:#7e6339;fill-rule:evenodd" /><path
         id="path3247"
         d="m 409.38297,179.00728 c 0,0 -0.47456,-2.13173 0.0647,-2.57688 l 6.00719,0.0399 23.87922,14.21049 24.4554,-16.06545 1.23738,1.67656 -26.24696,19.02112 -25.21329,-15.31359 -4.18305,-0.99279 z"
         inkscape:connector-curvature="0"
         style="fill:#afa28d;fill-rule:evenodd" /></g><g
       style="fill-rule:evenodd"
       transform="matrix(0.88708268,-0.03644375,0,0.87738036,-272.53347,85.321812)"
       id="g2454"
       inkscape:export-filename="E:\Gaming\Code_Repository\CogTrain\android\assets\window_dark.png"
       inkscape:export-xdpi="90"
       inkscape:export-ydpi="90"><path
         style="fill:#f6ddcd"
         inkscape:connector-curvature="0"
         d="m 155.13,44.322 65.174,0.70481 -0.0332,-80.552 -66.02,0.84801 z"
         id="path2443" /><path
         inkscape:connector-curvature="0"
         d="m 159.21,38.686 -1.1685,-68.426 56.817,-0.56276 -0.86836,69.022 z"
         id="path2445" /><path
         style="fill:#f6ddcd"
         inkscape:connector-curvature="0"
         d="m 158.2,-6.6214 -0.0365,-3.2713 57.761,-1.5148 0.43503,3.5327 -58.16,1.2534 z"
         id="path2447" /><path
         style="fill:#f6ddcd"
         inkscape:connector-curvature="0"
         d="m 186.14,40.485 -0.97197,-70.361 5.5613,-0.18752 0.73438,70.296 z"
         id="path2450" /><path
         style="fill:#f6ddcd"
         inkscape:connector-curvature="0"
         d="m 158.2,-6.6214 -0.0365,-3.2713 57.761,-1.5148 0.43503,3.5327 -58.16,1.2534 z"
         id="path2452" /></g><g
       id="g4345"
       transform="matrix(0.88708268,0,0,0.87738036,-148.42873,16.227177)"
       inkscape:export-filename="E:\Gaming\Code_Repository\CogTrain\android\assets\window_light.png"
       inkscape:export-xdpi="90"
       inkscape:export-ydpi="90"><path
         style="fill:#f6ddcd;fill-rule:evenodd"
         inkscape:connector-curvature="0"
         d="m 20.19256,13.51799 65.174,-2.002322 -0.0332,-80.550621 -66.02,3.590283 z"
         id="path2443-0" /><path
         inkscape:connector-curvature="0"
         d="m 24.27256,7.7125192 -1.1685,-68.3774642 56.817,-2.922768 -0.86836,69.0580696 z"
         id="path2445-2"
         style="fill:#ffd42a;fill-rule:evenodd" /><path
         style="fill:#f6ddcd;fill-rule:evenodd"
         inkscape:connector-curvature="0"
         d="m 23.26256,-37.552928 -0.0365,-3.269784 57.761,-3.914019 0.43503,3.51463 -58.16,3.669192 z"
         id="path2447-0" /><path
         style="fill:#f6ddcd;fill-rule:evenodd"
         inkscape:connector-curvature="0"
         d="m 51.20256,8.3929278 -0.97197,-70.3206268 5.5613,-0.41852 0.73438,70.2654959 z"
         id="path2450-2" /><path
         style="fill:#f6ddcd;fill-rule:evenodd"
         inkscape:connector-curvature="0"
         d="m 23.26256,-37.552928 -0.0365,-3.269784 57.761,-3.914019 0.43503,3.51463 -58.16,3.669192 z"
         id="path2452-1" /></g></g><metadata
     id="metadata70"><rdf:RDF><cc:Work><dc:format>image/svg+xml</dc:format><dc:type
           rdf:resource="http://purl.org/dc/dcmitype/StillImage" /><cc:license
           rdf:resource="http://creativecommons.org/publicdomain/zero/1.0/" /><dc:publisher><cc:Agent
             rdf:about="http://openclipart.org/"><dc:title>Openclipart</dc:title></cc:Agent></dc:publisher><dc:title /><dc:date>2013-08-01T18:03:51</dc:date><dc:description>A tarraced village house.</dc:description><dc:source>https://openclipart.org/detail/181398/village-house-by-rdevries-181398</dc:source><dc:creator><cc:Agent><dc:title>rdevries</dc:title></cc:Agent></dc:creator><dc:subject><rdf:Bag><rdf:li>buildig</rdf:li><rdf:li>buildings</rdf:li><rdf:li>city</rdf:li><rdf:li>corner</rdf:li><rdf:li>corner house</rdf:li><rdf:li>dwelling</rdf:li><rdf:li>home</rdf:li><rdf:li>house</rdf:li><rdf:li>houses</rdf:li><rdf:li>living</rdf:li><rdf:li>place</rdf:li><rdf:li>places</rdf:li><rdf:li>street</rdf:li><rdf:li>tarraced house</rdf:li><rdf:li>to live</rdf:li><rdf:li>village</rdf:li></rdf:Bag></dc:subject></cc:Work><cc:License
         rdf:about="http://creativecommons.org/publicdomain/zero/1.0/"><cc:permits
           rdf:resource="http://creativecommons.org/ns#Reproduction" /><cc:permits
           rdf:resource="http://creativecommons.org/ns#Distribution" /><cc:permits
           rdf:resource="http://creativecommons.org/ns#DerivativeWorks" /></cc:License></rdf:RDF></metadata></svg>